<?xml version="1.0" encoding="utf-8"?>
<!-- Generator: Adobe Illustrator 27.5.0, SVG Export Plug-In . SVG Version: 6.00 Build 0)  -->
<svg version="1.1" id="_x2018_лой_x5F_1" xmlns="http://www.w3.org/2000/svg" xmlns:xlink="http://www.w3.org/1999/xlink"
	 x="0px" y="0px" viewBox="0 0 3200 2000" style="enable-background:new 0 0 3200 2000;" xml:space="preserve">
<rect style="fill:#F8FCFF;" width="3200" height="2000"/>
<g>
	<path style="fill:#EBF3FA;" d="M3007.211,1515.719c-56.02,0-143.149-3.897-144.368-2.563h-289.43l-84.711-0.131h-758.504
		l-221.518-0.137H924.709l-243.911-0.131H239.72c0,0-0.731-1.07-2.193-3.212l-0.244-0.268c0,0-0.244-0.269-0.244-0.398
		c-0.975-1.071-371.757-478.64,232.652-688.215c236.484-81.999-4.751-234.781,345.262-333.969
		c451.286-127.886,705.679,161.191,1229.25,54.489c491.089-100.082,781.713,63.192,749.188,248.001
		c-15.277,86.808,11.988,216.158,114.55,233.688c160.173,27.376,195.886,190.124,172.55,331.823
		C3066.104,1442.054,3009.195,1515.719,3007.211,1515.719z"/>
	<g>
		<rect x="1223.284" y="653.649" style="fill:#F3F7FF;" width="291.482" height="329.221"/>
		<g>
			<rect x="1249.018" y="681.791" style="opacity:0.1;fill:#A8D29F;" width="40.774" height="40.774"/>
			<rect x="1249.018" y="742.579" style="opacity:0.2;fill:#A8D29F;" width="40.774" height="40.774"/>
			<rect x="1249.018" y="803.368" style="opacity:0.3;fill:#A8D29F;" width="40.774" height="40.774"/>
			<rect x="1249.018" y="864.156" style="opacity:0.5;fill:#A8D29F;" width="40.774" height="40.774"/>
			<rect x="1249.018" y="924.944" style="opacity:0.8;fill:#A8D29F;" width="40.774" height="40.774"/>
		</g>
		<g>
			<rect x="1315.135" y="681.791" style="opacity:0.1;fill:#7D9FEA;" width="40.773" height="40.774"/>
			<rect x="1315.135" y="742.579" style="opacity:0.2;fill:#7D9FEA;" width="40.773" height="40.774"/>
			<rect x="1315.135" y="803.368" style="opacity:0.4;fill:#7D9FEA;" width="40.773" height="40.774"/>
			<rect x="1315.135" y="864.156" style="opacity:0.5;fill:#7D9FEA;" width="40.773" height="40.774"/>
			<rect x="1315.135" y="924.944" style="opacity:0.7;fill:#7D9FEA;" width="40.773" height="40.774"/>
		</g>
		<g>
			<rect x="1381.987" y="681.791" style="opacity:0.1;fill:#ED823A;" width="40.774" height="40.774"/>
			<rect x="1381.987" y="742.579" style="opacity:0.2;fill:#ED823A;" width="40.774" height="40.774"/>
			<rect x="1381.987" y="803.368" style="opacity:0.4;fill:#ED823A;" width="40.774" height="40.774"/>
			<rect x="1381.987" y="864.156" style="opacity:0.5;fill:#ED823A;" width="40.774" height="40.774"/>
			<rect x="1381.987" y="924.944" style="opacity:0.7;fill:#ED823A;" width="40.774" height="40.774"/>
		</g>
		<g>
			<rect x="1440.446" y="681.791" style="opacity:0.5;fill:#6180CE;" width="52.099" height="3.561"/>
			<rect x="1440.446" y="690.019" style="opacity:0.5;fill:#6180CE;" width="52.099" height="3.562"/>
		</g>
		<g>
			<rect x="1440.446" y="742.267" style="opacity:0.5;fill:#6180CE;" width="52.099" height="3.561"/>
			<rect x="1440.446" y="750.495" style="opacity:0.5;fill:#6180CE;" width="52.099" height="3.561"/>
		</g>
		<g>
			<rect x="1440.446" y="802.743" style="opacity:0.5;fill:#6180CE;" width="52.099" height="3.561"/>
			<rect x="1440.446" y="810.971" style="opacity:0.5;fill:#6180CE;" width="52.099" height="3.561"/>
		</g>
		<g>
			<rect x="1440.446" y="863.22" style="opacity:0.5;fill:#6180CE;" width="52.099" height="3.561"/>
			<rect x="1440.446" y="871.448" style="opacity:0.5;fill:#6180CE;" width="52.099" height="3.561"/>
		</g>
		<g>
			<rect x="1440.446" y="923.696" style="opacity:0.5;fill:#6180CE;" width="52.099" height="3.561"/>
			<rect x="1440.446" y="931.924" style="opacity:0.5;fill:#6180CE;" width="52.099" height="3.561"/>
		</g>
	</g>
	<g>
		<g>
			
				<rect x="1867.717" y="1464.922" transform="matrix(-1 -1.224647e-16 1.224647e-16 -1 3744.5625 2963.2324)" style="fill:#2A4E96;" width="9.129" height="33.389"/>
			<path style="fill:#2A4E96;" d="M1884.072,1503.148c0-6.512-5.279-11.791-11.791-11.791c-6.513,0-11.792,5.279-11.792,11.791
				c0,6.513,5.279,11.792,11.792,11.792C1878.793,1514.94,1884.072,1509.661,1884.072,1503.148z"/>
			<path style="fill:#FF9E55;" d="M1880.009,1503.148c0-4.268-3.46-7.728-7.728-7.728c-4.269,0-7.729,3.46-7.729,7.728
				c0,4.269,3.46,7.729,7.729,7.729C1876.549,1510.877,1880.009,1507.417,1880.009,1503.148z"/>
		</g>
		<g>
			
				<rect x="1641.033" y="1464.922" transform="matrix(-1 -1.224647e-16 1.224647e-16 -1 3291.1953 2963.2324)" style="fill:#2A4E96;" width="9.129" height="33.389"/>
			<path style="fill:#2A4E96;" d="M1657.389,1503.148c0-6.512-5.279-11.791-11.791-11.791c-6.513,0-11.792,5.279-11.792,11.791
				c0,6.513,5.279,11.792,11.792,11.792C1652.109,1514.94,1657.389,1509.661,1657.389,1503.148z"/>
			<path style="fill:#FF9E55;" d="M1653.325,1503.148c0-4.268-3.46-7.728-7.728-7.728s-7.729,3.46-7.729,7.728
				c0,4.269,3.461,7.729,7.729,7.729S1653.325,1507.417,1653.325,1503.148z"/>
		</g>
		<g>
			
				<rect x="1491.743" y="1464.922" transform="matrix(-1 -1.224647e-16 1.224647e-16 -1 2992.6143 2963.2324)" style="fill:#2A4E96;" width="9.129" height="33.389"/>
			<path style="fill:#2A4E96;" d="M1508.099,1503.148c0-6.512-5.279-11.791-11.792-11.791s-11.792,5.279-11.792,11.791
				c0,6.513,5.279,11.792,11.792,11.792S1508.099,1509.661,1508.099,1503.148z"/>
			<path style="fill:#FF9E55;" d="M1504.035,1503.148c0-4.268-3.46-7.728-7.728-7.728s-7.728,3.46-7.728,7.728
				c0,4.269,3.459,7.729,7.728,7.729S1504.035,1507.417,1504.035,1503.148z"/>
		</g>
		<path style="fill:#8DB0FF;" d="M1469.342,1487.584h155.429c9.869,0,17.87-8.001,17.87-17.87v-361.217
			c0-9.869-8.001-17.87-17.87-17.87h-134.032c-21.686,0-39.266,17.58-39.266,39.267v339.82
			C1451.472,1479.583,1459.473,1487.584,1469.342,1487.584z"/>
		<path style="fill:#AEC3FF;" d="M1611.711,1487.584H1890.3c9.585,0,17.355-7.771,17.355-17.355v-379.602h-295.944V1487.584z"/>
		
			<rect x="1507.125" y="1072.099" transform="matrix(-1 -1.224647e-16 1.224647e-16 -1 3317.7866 2162.7256)" style="fill:#2A4E96;" width="303.536" height="18.528"/>
		
			<rect x="1663.433" y="1190.049" transform="matrix(-1 -1.224647e-16 1.224647e-16 -1 3535.7139 2523.5723)" style="opacity:0.3;fill:#8DB0FF;" width="208.849" height="143.475"/>
		
			<rect x="1487.346" y="1117.092" transform="matrix(-1 -1.224647e-16 1.224647e-16 -1 3081.0068 2241.7451)" style="fill:#23358E;" width="106.314" height="7.562"/>
		
			<rect x="1487.346" y="1135.575" transform="matrix(-1 -1.224647e-16 1.224647e-16 -1 3081.0068 2278.7129)" style="fill:#23358E;" width="106.314" height="7.563"/>
		<path style="fill:#AEC3FF;" d="M1548.286,1072.099h331.982l0,0c0-19.938-16.163-36.102-36.101-36.102h-295.882V1072.099z"/>
		<path style="fill:#8DB0FF;" d="M1470.047,1072.099h172.594l0,0c0-19.938-16.163-36.102-36.102-36.102h-100.391
			C1486.21,1035.997,1470.047,1052.16,1470.047,1072.099L1470.047,1072.099z"/>
		<g>
			<path style="fill:#17296D;" d="M1900.71,1090.631l27.29,51.789c4.15,7.876,1.129,14.261-6.747,14.261h-227.391
				c-7.877,0-17.626-6.385-21.776-14.261l-27.289-51.789H1900.71z"/>
			<path style="fill:#FF9E55;" d="M1705.723,1156.681h227.392c7.876,0,10.896-6.385,6.746-14.261l-27.29-51.789h-255.913
				l27.29,51.789C1688.097,1150.296,1697.847,1156.681,1705.723,1156.681z"/>
			<polygon style="fill:#F9DDBF;" points="1712.764,1137.174 1780.631,1137.174 1762.69,1103.127 1694.823,1103.127 			"/>
			<g>
				<path style="fill:#163560;" d="M1854.495,1111.095c1.399,2.655,4.687,4.809,7.343,4.809s3.675-2.153,2.275-4.809
					c-1.399-2.656-4.688-4.81-7.344-4.81C1854.114,1106.285,1853.096,1108.438,1854.495,1111.095z"/>
				<path style="fill:#163560;" d="M1828.206,1111.095c1.399,2.655,4.688,4.809,7.343,4.809c2.656,0,3.675-2.153,2.275-4.809
					c-1.399-2.656-4.688-4.81-7.343-4.81C1827.825,1106.285,1826.807,1108.438,1828.206,1111.095z"/>
				<path style="fill:#163560;" d="M1800.956,1111.095c1.399,2.655,4.687,4.809,7.343,4.809s3.674-2.153,2.274-4.809
					c-1.399-2.656-4.687-4.81-7.343-4.81S1799.557,1108.438,1800.956,1111.095z"/>
				<path style="fill:#163560;" d="M1864.8,1130.65c1.399,2.656,4.688,4.81,7.343,4.81c2.656,0,3.675-2.153,2.275-4.81
					c-1.399-2.655-4.688-4.809-7.343-4.809C1864.419,1125.842,1863.4,1127.995,1864.8,1130.65z"/>
				<path style="fill:#163560;" d="M1838.511,1130.65c1.4,2.656,4.688,4.81,7.344,4.81c2.655,0,3.675-2.153,2.274-4.81
					c-1.399-2.655-4.687-4.809-7.343-4.809C1838.131,1125.842,1837.111,1127.995,1838.511,1130.65z"/>
				<path style="fill:#163560;" d="M1811.261,1130.65c1.399,2.656,4.687,4.81,7.343,4.81s3.675-2.153,2.275-4.81
					c-1.399-2.655-4.688-4.809-7.344-4.809C1810.88,1125.842,1809.861,1127.995,1811.261,1130.65z"/>
			</g>
			<g>
				<path style="fill:#163560;" d="M1901.92,1103.924c0.665,1.262,2.228,2.285,3.489,2.285c1.263,0,1.746-1.023,1.081-2.285
					s-2.227-2.285-3.489-2.285S1901.255,1102.662,1901.92,1103.924z"/>
				<path style="fill:#163560;" d="M1889.426,1103.924c0.665,1.262,2.228,2.285,3.49,2.285c1.262,0,1.746-1.023,1.081-2.285
					s-2.228-2.285-3.49-2.285C1889.245,1101.639,1888.761,1102.662,1889.426,1103.924z"/>
				<path style="fill:#163560;" d="M1876.475,1103.924c0.666,1.262,2.228,2.285,3.49,2.285s1.746-1.023,1.081-2.285
					s-2.228-2.285-3.489-2.285C1876.294,1101.639,1875.81,1102.662,1876.475,1103.924z"/>
				<path style="fill:#163560;" d="M1906.817,1113.218c0.665,1.263,2.228,2.285,3.489,2.285c1.263,0,1.746-1.022,1.081-2.285
					c-0.665-1.262-2.228-2.285-3.489-2.285C1906.636,1110.933,1906.152,1111.956,1906.817,1113.218z"/>
				<path style="fill:#163560;" d="M1894.323,1113.218c0.665,1.263,2.228,2.285,3.49,2.285c1.262,0,1.746-1.022,1.081-2.285
					c-0.665-1.262-2.228-2.285-3.49-2.285C1894.143,1110.933,1893.658,1111.956,1894.323,1113.218z"/>
				<path style="fill:#163560;" d="M1881.372,1113.218c0.665,1.263,2.228,2.285,3.49,2.285c1.262,0,1.746-1.022,1.081-2.285
					c-0.665-1.262-2.228-2.285-3.49-2.285C1881.191,1110.933,1880.707,1111.956,1881.372,1113.218z"/>
			</g>
		</g>
		<path style="fill:#8DB0FF;" d="M1854.875,1230.126h-162.309c-3.101,0-5.614-2.514-5.614-5.614l0,0
			c0-3.102,2.514-5.615,5.614-5.615h162.309c3.101,0,5.614,2.514,5.614,5.615l0,0
			C1860.489,1227.612,1857.976,1230.126,1854.875,1230.126z"/>
		<path style="fill:#8DB0FF;" d="M1854.875,1256.041h-162.309c-3.101,0-5.614-2.514-5.614-5.615l0,0
			c0-3.101,2.514-5.615,5.614-5.615h162.309c3.101,0,5.614,2.515,5.614,5.615l0,0
			C1860.489,1253.527,1857.976,1256.041,1854.875,1256.041z"/>
	</g>
	<g>
		<g>
			
				<rect x="2804.824" y="1461.741" transform="matrix(-1 -1.224647e-16 1.224647e-16 -1 5619.3223 2958.8633)" style="fill:#2A4E96;" width="9.674" height="35.381"/>
			<path style="fill:#2A4E96;" d="M2822.156,1502.249c0-6.901-5.595-12.495-12.495-12.495c-6.901,0-12.495,5.594-12.495,12.495
				c0,6.9,5.594,12.494,12.495,12.494C2816.562,1514.743,2822.156,1509.149,2822.156,1502.249z"/>
			<path style="fill:#FF9E55;" d="M2817.85,1502.249c0-4.522-3.666-8.189-8.188-8.189s-8.188,3.667-8.188,8.189
				s3.666,8.188,8.188,8.188S2817.85,1506.771,2817.85,1502.249z"/>
		</g>
		<g>
			
				<rect x="2406.424" y="1461.741" transform="matrix(-1 -1.224647e-16 1.224647e-16 -1 4822.5215 2958.8633)" style="fill:#2A4E96;" width="9.674" height="35.381"/>
			<path style="fill:#2A4E96;" d="M2423.756,1502.249c0-6.901-5.594-12.495-12.494-12.495c-6.901,0-12.495,5.594-12.495,12.495
				c0,6.9,5.594,12.494,12.495,12.494C2418.162,1514.743,2423.756,1509.149,2423.756,1502.249z"/>
			<path style="fill:#FF9E55;" d="M2419.45,1502.249c0-4.522-3.667-8.189-8.188-8.189c-4.523,0-8.189,3.667-8.189,8.189
				s3.666,8.188,8.189,8.188C2415.783,1510.438,2419.45,1506.771,2419.45,1502.249z"/>
		</g>
		<g>
			
				<rect x="2226.646" y="1461.741" transform="matrix(-1 -1.224647e-16 1.224647e-16 -1 4462.9658 2958.8633)" style="fill:#2A4E96;" width="9.673" height="35.381"/>
			<path style="fill:#2A4E96;" d="M2243.978,1502.249c0-6.901-5.595-12.495-12.495-12.495s-12.494,5.594-12.494,12.495
				c0,6.9,5.594,12.494,12.494,12.494S2243.978,1509.149,2243.978,1502.249z"/>
			<path style="fill:#FF9E55;" d="M2239.672,1502.249c0-4.522-3.667-8.189-8.189-8.189c-4.521,0-8.188,3.667-8.188,8.189
				s3.667,8.188,8.188,8.188C2236.005,1510.438,2239.672,1506.771,2239.672,1502.249z"/>
		</g>
		<path style="fill:#6C88CB;" d="M2838.09,1485.133l79.856,0.622v-351.568c0-38.144-30.922-69.065-69.065-69.065h-26.725
			L2838.09,1485.133z"/>
		<path style="fill:#AEC3FF;" d="M2804.824,1485.563h89.833v-343.09c0-25.442-20.626-46.067-46.068-46.067h-1.827L2804.824,1485.563
			z"/>
		<path style="fill:#AEC3FF;" d="M2196.082,1485.755h624.564c14.635,0,26.499-11.863,26.499-26.499v-394.135h-651.063V1485.755z"/>
		<polygon style="fill:#6C88CB;" points="2196.082,1096.405 2861.335,1096.405 2847.146,1065.121 2196.082,1065.121 		"/>
		<path style="fill:#8DB0FF;" d="M2196.082,1485.755h95.791v-351.568c0-38.144-30.922-69.065-69.066-69.065h-26.725V1485.755z"/>
		<g>
			<path style="fill:#17296D;" d="M2564.898,1038.982l28.917,54.879c4.398,8.346,1.197,15.111-7.148,15.111h-240.954
				c-8.347,0-18.678-6.766-23.075-15.111l-23.394-44.396c-2.51-4.761,0.943-10.482,6.324-10.482H2564.898z"/>
			<path style="fill:#2A4E96;" d="M2358.28,1108.973h240.954c8.347,0,11.547-6.766,7.149-15.111l-24.475-46.447
				c-2.732-5.186-8.111-8.431-13.973-8.431h-247.166c-6.578,0-10.798,6.993-7.731,12.813l22.166,42.065
				C2339.604,1102.207,2349.935,1108.973,2358.28,1108.973z"/>
			<polygon style="fill:#F9DDBF;" points="2365.74,1088.303 2437.657,1088.303 2418.646,1052.225 2346.73,1052.225 			"/>
			<g>
				<path style="fill:#17296D;" d="M2515.927,1060.667c1.482,2.814,4.967,5.096,7.78,5.096c2.815,0,3.895-2.281,2.411-5.096
					s-4.967-5.096-7.78-5.096C2515.523,1055.571,2514.443,1057.853,2515.927,1060.667z"/>
				<path style="fill:#17296D;" d="M2488.07,1060.667c1.482,2.814,4.966,5.096,7.78,5.096s3.894-2.281,2.411-5.096
					c-1.483-2.814-4.967-5.096-7.781-5.096S2486.587,1057.853,2488.07,1060.667z"/>
				<path style="fill:#17296D;" d="M2459.193,1060.667c1.483,2.814,4.967,5.096,7.781,5.096s3.894-2.281,2.41-5.096
					c-1.482-2.814-4.966-5.096-7.78-5.096S2457.711,1057.853,2459.193,1060.667z"/>
				<path style="fill:#17296D;" d="M2526.847,1081.39c1.482,2.814,4.967,5.097,7.78,5.097c2.814,0,3.894-2.282,2.411-5.097
					c-1.483-2.813-4.967-5.096-7.781-5.096S2525.363,1078.576,2526.847,1081.39z"/>
				<path style="fill:#17296D;" d="M2498.989,1081.39c1.483,2.814,4.967,5.097,7.781,5.097s3.894-2.282,2.411-5.097
					c-1.483-2.813-4.967-5.096-7.781-5.096S2497.506,1078.576,2498.989,1081.39z"/>
				<path style="fill:#17296D;" d="M2470.113,1081.39c1.483,2.814,4.967,5.097,7.781,5.097s3.894-2.282,2.41-5.097
					c-1.482-2.813-4.967-5.096-7.781-5.096C2469.71,1076.294,2468.631,1078.576,2470.113,1081.39z"/>
			</g>
			<g>
				<path style="fill:#F9DDBF;" d="M2566.18,1053.069c0.705,1.337,2.36,2.421,3.698,2.421s1.851-1.084,1.146-2.421
					c-0.705-1.338-2.36-2.422-3.698-2.422C2565.988,1050.647,2565.475,1051.731,2566.18,1053.069z"/>
				<path style="fill:#F9DDBF;" d="M2552.941,1053.069c0.705,1.337,2.36,2.421,3.697,2.421c1.338,0,1.851-1.084,1.146-2.421
					c-0.704-1.338-2.36-2.422-3.697-2.422C2552.749,1050.647,2552.236,1051.731,2552.941,1053.069z"/>
				<path style="fill:#F9DDBF;" d="M2539.218,1053.069c0.704,1.337,2.36,2.421,3.698,2.421c1.337,0,1.85-1.084,1.145-2.421
					c-0.704-1.338-2.359-2.422-3.697-2.422S2538.514,1051.731,2539.218,1053.069z"/>
				<path style="fill:#F9DDBF;" d="M2571.369,1062.918c0.705,1.337,2.361,2.421,3.698,2.421c1.338,0,1.851-1.084,1.146-2.421
					c-0.705-1.338-2.36-2.422-3.697-2.422C2571.178,1060.496,2570.665,1061.58,2571.369,1062.918z"/>
				<path style="fill:#F9DDBF;" d="M2558.131,1062.918c0.705,1.337,2.36,2.421,3.697,2.421c1.338,0,1.851-1.084,1.146-2.421
					c-0.705-1.338-2.361-2.422-3.698-2.422C2557.938,1060.496,2557.426,1061.58,2558.131,1062.918z"/>
				<path style="fill:#F9DDBF;" d="M2544.407,1062.918c0.704,1.337,2.36,2.421,3.698,2.421c1.337,0,1.85-1.084,1.146-2.421
					c-0.705-1.338-2.36-2.422-3.698-2.422C2544.216,1060.496,2543.702,1061.58,2544.407,1062.918z"/>
			</g>
		</g>
		<path style="fill:#17296D;" d="M2346.589,1210.988h448.983c7.781,0,14.089-6.308,14.089-14.089l0,0
			c0-7.781-6.308-14.089-14.089-14.089h-448.983c-7.781,0-14.089,6.308-14.089,14.089l0,0
			C2332.5,1204.681,2338.808,1210.988,2346.589,1210.988z"/>
		<g>
			<path style="fill:#8DB0FF;" d="M2802.709,1450.85h-210.275v-126.687h210.275V1450.85z M2594.906,1448.377h205.33v-121.741
				h-205.33V1448.377z"/>
		</g>
		<g>
			<path style="fill:#8DB0FF;" d="M2541.538,1450.85h-210.274v-126.687h210.274V1450.85z M2333.736,1448.377h205.329v-121.741
				h-205.329V1448.377z"/>
		</g>
		<path style="fill:#F9DDBF;" d="M2929.508,1462.225h-541.726c-11.896-15.76-21.349-35.004-24.366-57.96
			c-10.355-78.864,20.969-169.765-30.912-207.362h477.156c0,0,71.287,9.953,64.385,128.498
			C2870.734,1382.318,2899.106,1429.033,2929.508,1462.225z"/>
	</g>
	<g>
		<path style="fill:#C0D8FB;" d="M2400.272,761.755h-107.084c-4.916,0-8.938-4.022-8.938-8.938V649.462
			c0-4.916,4.022-8.938,8.938-8.938h107.084c4.915,0,8.938,4.022,8.938,8.938v103.354
			C2409.21,757.733,2405.188,761.755,2400.272,761.755z"/>
		<path style="fill:#DFEBFD;" d="M2395.633,756.503h-97.806c-4.49,0-8.163-3.673-8.163-8.164v-94.4c0-4.49,3.673-8.163,8.163-8.163
			h97.806c4.49,0,8.164,3.673,8.164,8.163v94.4C2403.797,752.83,2400.123,756.503,2395.633,756.503z"/>
		<g>
			<g>
				<path style="fill:#B7D3F3;" d="M2344.142,656.841c0-1.43,1.159-2.589,2.589-2.589s2.588,1.159,2.588,2.589
					c0,1.429-1.158,2.588-2.588,2.588S2344.142,658.27,2344.142,656.841z"/>
				<path style="fill:#B7D3F3;" d="M2365.028,660.499c0.694-1.25,2.271-1.7,3.521-1.005c1.249,0.694,1.699,2.27,1.005,3.52
					c-0.694,1.25-2.271,1.7-3.521,1.005C2364.784,663.325,2364.334,661.748,2365.028,660.499z"/>
				<path style="fill:#B7D3F3;" d="M2382.923,674.716c1.201-0.775,2.803-0.43,3.578,0.772c0.774,1.201,0.43,2.803-0.771,3.578
					c-1.202,0.775-2.804,0.429-3.579-0.772C2381.376,677.093,2381.722,675.491,2382.923,674.716z"/>
				<path style="fill:#B7D3F3;" d="M2391.786,696.72c1.43,0,2.589,1.159,2.589,2.588s-1.159,2.588-2.589,2.588
					s-2.589-1.159-2.589-2.588S2390.356,696.72,2391.786,696.72z"/>
				<path style="fill:#B7D3F3;" d="M2387.261,722.255c1.011,1.011,1.011,2.65,0,3.661c-1.011,1.011-2.649,1.011-3.661,0
					c-1.011-1.011-1.011-2.649,0-3.661C2384.611,721.245,2386.25,721.245,2387.261,722.255z"/>
				<path style="fill:#B7D3F3;" d="M2371.006,738.552c1.012,1.011,1.012,2.65,0,3.661c-1.011,1.011-2.649,1.011-3.66,0
					c-1.012-1.011-1.012-2.649,0-3.661C2368.356,737.542,2369.995,737.542,2371.006,738.552z"/>
				<path style="fill:#B7D3F3;" d="M2344.142,746.953c0-1.43,1.159-2.588,2.589-2.588s2.588,1.159,2.588,2.588
					c0,1.429-1.158,2.588-2.588,2.588S2344.142,748.382,2344.142,746.953z"/>
			</g>
			<g>
				<path style="fill:#B7D3F3;" d="M2328.35,660.499c-0.694-1.25-2.271-1.7-3.52-1.005c-1.25,0.694-1.7,2.27-1.006,3.52
					c0.694,1.25,2.271,1.7,3.52,1.005C2328.594,663.325,2329.044,661.748,2328.35,660.499z"/>
				<path style="fill:#B7D3F3;" d="M2310.455,674.716c-1.201-0.775-2.803-0.43-3.578,0.772c-0.775,1.201-0.43,2.803,0.771,3.578
					s2.804,0.429,3.578-0.772C2312.002,677.093,2311.656,675.491,2310.455,674.716z"/>
				<circle style="fill:#B7D3F3;" cx="2301.592" cy="699.308" r="2.589"/>
				<path style="fill:#B7D3F3;" d="M2306.117,722.255c-1.011,1.011-1.011,2.65,0,3.661c1.012,1.011,2.65,1.011,3.66,0
					c1.012-1.011,1.012-2.649,0-3.661C2308.768,721.245,2307.129,721.245,2306.117,722.255z"/>
				<path style="fill:#B7D3F3;" d="M2322.372,738.552c-1.011,1.011-1.011,2.65,0,3.661c1.011,1.011,2.649,1.011,3.66,0
					c1.011-1.011,1.011-2.649,0-3.661C2325.021,737.542,2323.383,737.542,2322.372,738.552z"/>
			</g>
		</g>
		<g>
			<path style="fill:#B7D3F3;" d="M2346.032,699.308c0-1.43,1.159-2.588,2.589-2.588s2.588,1.159,2.588,2.588
				s-1.158,2.588-2.588,2.588S2346.032,700.738,2346.032,699.308z"/>
			<g>
				<rect x="2348.268" y="666.971" style="fill:#B7D3F3;" width="0.707" height="32.337"/>
			</g>
			<g>
				
					<rect x="2345.969" y="691.473" transform="matrix(0.7865 -0.6175 0.6175 0.7865 75.4288 1603.2827)" style="fill:#B7D3F3;" width="21.795" height="2.121"/>
			</g>
		</g>
	</g>
	<g>
		<g>
			<g>
				<path style="fill:#AEC3FF;" d="M611.649,1517.305h-0.319c-1.877,0-3.387-2.498-3.343-5.532l5.07-355.384l14.936-2.817
					l-12.737,358.226C615.147,1514.889,613.565,1517.305,611.649,1517.305z"/>
			</g>
			<g>
				<path style="fill:#AEC3FF;" d="M1204.465,1517.305h0.318c1.877,0,3.387-2.498,3.344-5.532l-5.07-355.384l-14.936-2.817
					l12.737,358.226C1200.967,1514.889,1202.55,1517.305,1204.465,1517.305z"/>
			</g>
			<path style="fill:#AEC3FF;" d="M581.659,1162.926h630.533c4.536,0,8.213-3.678,8.213-8.213v-5.017
				c0-4.536-3.677-8.213-8.213-8.213H581.659c-4.536,0-8.213,3.677-8.213,8.213v5.017
				C573.446,1159.248,577.123,1162.926,581.659,1162.926z"/>
		</g>
		<g>
			<g>
				<path style="fill:#D86713;" d="M735.138,983.586l-12.515,148.805c0,0-1.312,9.02,5.398,9.036c11.032,0.026,54.909,0,54.909,0
					s-8.303-1.878-8.202-6.103c0.119-4.979,14.627-153.147,14.627-153.147L735.138,983.586z"/>
				<path style="fill:#EE9849;" d="M786.49,1138.727c-2.17,0.007-44.078,0.139-54.821,0c-4.682-0.058-5.503-4.162-5.542-6.819
					c-0.019-1.273,0.142-2.215,0.142-2.215l0.326-3.868l0.829-9.857l0.733-8.709l0.941-11.191l0.793-9.445l8.892-105.736
					l54.218-1.407c0,0-6.111,62.006-10.433,107.143c-0.483,5.028-0.942,9.851-1.366,14.352c-0.138,1.438-0.269,2.842-0.398,4.211
					c-0.401,4.27-0.767,8.191-1.086,11.654c-0.168,1.825-0.323,3.521-0.463,5.074c-0.552,6.087-0.875,9.974-0.879,10.713
					c-0.003,0.431,0.034,0.832,0.105,1.204C779.371,1138.571,785.676,1138.727,786.49,1138.727z"/>
				<polygon style="fill:#F1A34F;" points="603.467,902.612 633.951,1025.06 638.125,1041.829 652.323,1098.862 916.098,1098.862 
					863.767,902.612 				"/>
				<polygon style="fill:#EE9849;" points="603.467,902.612 599.242,904.021 646.706,1103.122 652.324,1098.863 				"/>
				<polygon style="fill:#D86713;" points="646.706,1103.122 908.858,1103.122 916.097,1098.863 652.324,1098.863 				"/>
				
					<rect x="738.766" y="1138.786" transform="matrix(-1 -1.224647e-16 1.224647e-16 -1 1534.292 2280.2695)" style="fill:#F1A34F;" width="56.76" height="2.697"/>
				<polygon style="fill:#F1A34F;" points="903.319,1062.7 860.519,905.207 603.045,905.207 603.045,902.612 863.767,902.612 
					906.424,1062.35 				"/>
				<polygon style="fill:#D86713;" points="781.097,1103.121 780.804,1105.184 727.424,1115.967 728.157,1107.258 728.506,1103.121 
									"/>
				<path style="opacity:0.4;fill:#D86713;" d="M786.49,1138.727c-2.17,0.007-44.078,0.139-54.821,0
					c-4.682-0.058-5.503-4.162-5.542-6.819l53.128-9.995c-0.552,6.087-0.875,9.974-0.879,10.713
					c-0.003,0.431,0.034,0.832,0.105,1.204C779.371,1138.571,785.676,1138.727,786.49,1138.727z"/>
				<polygon style="opacity:0.4;fill:#D86713;" points="768.195,1059.134 652.324,1098.863 638.125,1041.829 				"/>
				<polygon style="fill:#AEC3FF;" points="603.467,902.612 863.767,902.612 906,1060.335 641.392,1060.335 				"/>
			</g>
			<polygon style="fill:#8DB0FF;" points="893.724,1053.5 650.004,1053.5 622.404,943.548 620.289,935.117 618.482,927.924 
				614.25,911.06 854.456,911.06 859.104,927.924 861.087,935.117 863.412,943.548 			"/>
			<g>
				<polygon style="fill:#F9DDBF;" points="650.509,925.227 634.265,925.456 633.903,924.044 650.147,923.815 				"/>
				<polygon style="fill:#F9DDBF;" points="646.925,929.119 635.245,929.283 634.883,927.871 646.563,927.707 				"/>
				<polygon style="fill:#F9DDBF;" points="660.343,928.93 648.663,929.094 648.302,927.683 659.981,927.518 				"/>
				<polygon style="fill:#F9DDBF;" points="670.051,928.793 662.812,928.895 662.45,927.483 669.69,927.381 				"/>
				<polygon style="fill:#F9DDBF;" points="663.544,925.044 653.522,925.185 653.161,923.773 663.183,923.632 				"/>
				<polygon style="fill:#F9DDBF;" points="677.235,924.851 667.213,924.992 666.851,923.58 676.873,923.439 				"/>
			</g>
			<g>
				<polygon style="fill:#F9DDBF;" points="831.01,918.75 820.052,918.904 819.808,917.951 830.766,917.797 				"/>
				<polygon style="fill:#F9DDBF;" points="828.592,921.375 820.713,921.486 820.469,920.533 828.348,920.422 				"/>
				<polygon style="fill:#F9DDBF;" points="837.644,921.248 829.765,921.358 829.521,920.406 837.4,920.295 				"/>
				<polygon style="fill:#F9DDBF;" points="844.193,921.155 839.31,921.224 839.065,920.271 843.949,920.203 				"/>
				<polygon style="fill:#F9DDBF;" points="839.804,918.626 833.043,918.721 832.799,917.769 839.56,917.673 				"/>
				<polygon style="fill:#F9DDBF;" points="849.039,918.496 842.278,918.591 842.034,917.639 848.795,917.544 				"/>
			</g>
			<g>
				<polygon style="fill:#F9DDBF;" points="860.242,1043.72 849.283,1043.874 849.039,1042.922 859.998,1042.768 				"/>
				<polygon style="fill:#F9DDBF;" points="857.824,1046.346 849.945,1046.456 849.701,1045.504 857.58,1045.393 				"/>
				<polygon style="fill:#F9DDBF;" points="866.875,1046.218 858.997,1046.329 858.753,1045.376 866.632,1045.266 				"/>
				<polygon style="fill:#F9DDBF;" points="873.425,1046.126 868.542,1046.194 868.297,1045.242 873.181,1045.173 				"/>
				<polygon style="fill:#F9DDBF;" points="869.036,1043.596 862.274,1043.691 862.031,1042.738 868.792,1042.644 				"/>
				<polygon style="fill:#F9DDBF;" points="878.271,1043.466 871.51,1043.562 871.266,1042.608 878.027,1042.514 				"/>
			</g>
			<g>
				<g>
					<polygon style="fill:#F9DDBF;" points="651.173,937.701 637.451,937.894 637.089,936.482 650.811,936.289 					"/>
					<polygon style="fill:#F9DDBF;" points="661.329,937.558 653.665,937.666 653.303,936.254 660.967,936.146 					"/>
					<polygon style="fill:#F9DDBF;" points="676.557,937.344 664.806,937.509 664.444,936.097 676.195,935.932 					"/>
				</g>
				<g>
					<polygon style="fill:#F9DDBF;" points="654.647,941.377 638.402,941.606 638.04,940.194 654.285,939.966 					"/>
					<polygon style="fill:#F9DDBF;" points="651.062,945.269 639.382,945.434 639.021,944.022 650.7,943.857 					"/>
					<polygon style="fill:#F9DDBF;" points="664.48,945.081 652.801,945.245 652.439,943.833 664.119,943.669 					"/>
					<polygon style="fill:#F9DDBF;" points="674.189,944.944 666.949,945.045 666.588,943.634 673.827,943.532 					"/>
					<polygon style="fill:#F9DDBF;" points="667.682,941.194 657.66,941.335 657.298,939.923 667.32,939.782 					"/>
					<polygon style="fill:#F9DDBF;" points="681.372,941.002 671.35,941.143 670.988,939.731 681.011,939.589 					"/>
				</g>
			</g>
			<g>
				<g>
					<polygon style="fill:#F9DDBF;" points="655.702,955.381 641.98,955.575 641.619,954.163 655.34,953.97 					"/>
					<polygon style="fill:#F9DDBF;" points="665.858,955.238 658.194,955.346 657.832,953.935 665.496,953.827 					"/>
					<polygon style="fill:#F9DDBF;" points="681.086,955.024 669.335,955.19 668.974,953.778 680.724,953.612 					"/>
				</g>
				<g>
					<polygon style="fill:#F9DDBF;" points="659.176,959.058 642.931,959.287 642.569,957.875 658.815,957.646 					"/>
					<polygon style="fill:#F9DDBF;" points="655.591,962.95 643.912,963.114 643.55,961.702 655.23,961.538 					"/>
					<polygon style="fill:#F9DDBF;" points="669.01,962.761 657.33,962.925 656.968,961.513 668.648,961.349 					"/>
					<polygon style="fill:#F9DDBF;" points="678.718,962.624 671.479,962.726 671.117,961.315 678.356,961.212 					"/>
					<polygon style="fill:#F9DDBF;" points="672.211,958.875 662.19,959.016 661.828,957.604 671.85,957.462 					"/>
					<polygon style="fill:#F9DDBF;" points="685.902,958.682 675.879,958.823 675.518,957.411 685.54,957.27 					"/>
				</g>
			</g>
			<g>
				<g>
					<polygon style="fill:#F9DDBF;" points="660.035,972.296 646.313,972.489 645.952,971.077 659.674,970.884 					"/>
					<polygon style="fill:#F9DDBF;" points="670.191,972.153 662.527,972.261 662.165,970.849 669.829,970.741 					"/>
					<polygon style="fill:#F9DDBF;" points="685.419,971.938 673.668,972.104 673.307,970.692 685.058,970.526 					"/>
				</g>
				<g>
					<polygon style="fill:#F9DDBF;" points="663.509,975.972 647.265,976.201 646.903,974.789 663.147,974.56 					"/>
					<polygon style="fill:#F9DDBF;" points="659.924,979.864 648.245,980.028 647.883,978.616 659.563,978.452 					"/>
					<polygon style="fill:#F9DDBF;" points="673.343,979.675 661.663,979.839 661.302,978.428 672.981,978.263 					"/>
					<polygon style="fill:#F9DDBF;" points="683.051,979.539 675.812,979.64 675.45,978.229 682.69,978.127 					"/>
					<polygon style="fill:#F9DDBF;" points="676.544,975.789 666.522,975.93 666.161,974.518 676.183,974.377 					"/>
					<polygon style="fill:#F9DDBF;" points="690.235,975.596 680.213,975.737 679.851,974.325 689.873,974.184 					"/>
				</g>
			</g>
			<g>
				<g>
					<polygon style="fill:#F9DDBF;" points="664.485,989.666 650.764,989.859 650.402,988.448 664.123,988.254 					"/>
					<polygon style="fill:#F9DDBF;" points="674.641,989.523 666.977,989.631 666.615,988.219 674.279,988.111 					"/>
					<polygon style="fill:#F9DDBF;" points="689.869,989.309 678.118,989.475 677.757,988.063 689.507,987.897 					"/>
				</g>
				<g>
					<polygon style="fill:#F9DDBF;" points="667.959,993.343 651.714,993.571 651.352,992.16 667.598,991.931 					"/>
					<polygon style="fill:#F9DDBF;" points="664.375,997.234 652.695,997.399 652.333,995.987 664.013,995.823 					"/>
					<polygon style="fill:#F9DDBF;" points="677.793,997.045 666.113,997.21 665.751,995.798 677.431,995.634 					"/>
					<polygon style="fill:#F9DDBF;" points="687.501,996.909 680.262,997.011 679.9,995.599 687.14,995.497 					"/>
					<polygon style="fill:#F9DDBF;" points="680.995,993.159 670.973,993.3 670.611,991.889 680.633,991.748 					"/>
					<polygon style="fill:#F9DDBF;" points="694.685,992.967 684.663,993.107 684.301,991.696 694.323,991.555 					"/>
				</g>
			</g>
			<g>
				<g>
					<polygon style="fill:#F9DDBF;" points="669.735,1011.086 656.013,1011.279 655.651,1009.867 669.373,1009.674 					"/>
					<polygon style="fill:#F9DDBF;" points="679.891,1010.943 672.227,1011.051 671.865,1009.639 679.529,1009.531 					"/>
					<polygon style="fill:#F9DDBF;" points="695.119,1010.729 683.368,1010.894 683.006,1009.482 694.757,1009.316 					"/>
				</g>
				<g>
					<polygon style="fill:#F9DDBF;" points="673.209,1014.763 656.964,1014.991 656.602,1013.579 672.847,1013.351 					"/>
					<polygon style="fill:#F9DDBF;" points="669.624,1018.654 657.944,1018.818 657.583,1017.406 669.262,1017.242 					"/>
					<polygon style="fill:#F9DDBF;" points="683.042,1018.465 671.363,1018.63 671.001,1017.218 682.681,1017.054 					"/>
					<polygon style="fill:#F9DDBF;" points="692.751,1018.329 685.512,1018.431 685.15,1017.019 692.389,1016.917 					"/>
					<polygon style="fill:#F9DDBF;" points="686.244,1014.579 676.222,1014.72 675.86,1013.309 685.882,1013.167 					"/>
					<polygon style="fill:#F9DDBF;" points="699.934,1014.387 689.912,1014.527 689.551,1013.115 699.573,1012.975 					"/>
				</g>
			</g>
			<g>
				<g>
					<polygon style="fill:#F9DDBF;" points="674.993,1031.136 661.271,1031.329 660.91,1029.917 674.632,1029.724 					"/>
					<polygon style="fill:#F9DDBF;" points="685.149,1030.993 677.485,1031.101 677.123,1029.688 684.788,1029.581 					"/>
					<polygon style="fill:#F9DDBF;" points="700.377,1030.778 688.626,1030.943 688.265,1029.532 700.016,1029.367 					"/>
				</g>
				<g>
					<polygon style="fill:#F9DDBF;" points="678.467,1034.813 662.223,1035.041 661.861,1033.629 678.105,1033.4 					"/>
					<polygon style="fill:#F9DDBF;" points="674.883,1038.704 663.203,1038.868 662.841,1037.457 674.521,1037.292 					"/>
					<polygon style="fill:#F9DDBF;" points="688.301,1038.516 676.621,1038.68 676.26,1037.268 687.94,1037.104 					"/>
					<polygon style="fill:#F9DDBF;" points="698.009,1038.379 690.77,1038.48 690.408,1037.068 697.648,1036.967 					"/>
					<polygon style="fill:#F9DDBF;" points="691.502,1034.629 681.48,1034.77 681.119,1033.357 691.141,1033.217 					"/>
					<polygon style="fill:#F9DDBF;" points="705.193,1034.436 695.171,1034.577 694.809,1033.165 704.831,1033.024 					"/>
				</g>
			</g>
			<g>
				<polygon style="fill:#F9DDBF;" points="714.616,925.227 698.371,925.456 698.009,924.044 714.254,923.815 				"/>
				<polygon style="fill:#F9DDBF;" points="711.031,929.119 699.352,929.283 698.99,927.871 710.669,927.707 				"/>
				<polygon style="fill:#F9DDBF;" points="724.45,928.93 712.77,929.094 712.408,927.683 724.088,927.518 				"/>
				<polygon style="fill:#F9DDBF;" points="734.158,928.793 726.919,928.895 726.557,927.483 733.796,927.381 				"/>
				<polygon style="fill:#F9DDBF;" points="727.651,925.044 717.629,925.185 717.268,923.773 727.29,923.632 				"/>
				<polygon style="fill:#F9DDBF;" points="741.341,924.851 731.319,924.992 730.958,923.58 740.98,923.439 				"/>
			</g>
			<g>
				<g>
					<polygon style="fill:#F9DDBF;" points="715.279,937.701 701.558,937.894 701.196,936.482 714.918,936.289 					"/>
					<polygon style="fill:#F9DDBF;" points="725.435,937.558 717.771,937.666 717.41,936.254 725.074,936.146 					"/>
					<polygon style="fill:#F9DDBF;" points="740.664,937.344 728.913,937.509 728.551,936.097 740.302,935.932 					"/>
				</g>
				<g>
					<polygon style="fill:#F9DDBF;" points="718.753,941.377 702.509,941.606 702.147,940.194 718.392,939.966 					"/>
					<polygon style="fill:#F9DDBF;" points="715.169,945.269 703.489,945.434 703.127,944.022 714.807,943.857 					"/>
					<polygon style="fill:#F9DDBF;" points="728.587,945.081 716.907,945.245 716.546,943.833 728.226,943.669 					"/>
					<polygon style="fill:#F9DDBF;" points="738.295,944.944 731.056,945.045 730.694,943.634 737.934,943.532 					"/>
					<polygon style="fill:#F9DDBF;" points="731.789,941.194 721.767,941.335 721.405,939.923 731.427,939.782 					"/>
					<polygon style="fill:#F9DDBF;" points="745.479,941.002 735.457,941.143 735.095,939.731 745.117,939.589 					"/>
				</g>
			</g>
			<g>
				<g>
					<polygon style="fill:#F9DDBF;" points="719.809,955.381 706.087,955.575 705.726,954.163 719.447,953.97 					"/>
					<polygon style="fill:#F9DDBF;" points="729.965,955.238 722.301,955.346 721.939,953.935 729.603,953.827 					"/>
					<polygon style="fill:#F9DDBF;" points="745.193,955.024 733.442,955.19 733.08,953.778 744.831,953.612 					"/>
				</g>
				<g>
					<polygon style="fill:#F9DDBF;" points="723.283,959.058 707.038,959.287 706.676,957.875 722.921,957.646 					"/>
					<polygon style="fill:#F9DDBF;" points="719.698,962.95 708.019,963.114 707.657,961.702 719.336,961.538 					"/>
					<polygon style="fill:#F9DDBF;" points="733.116,962.761 721.436,962.925 721.075,961.513 732.755,961.349 					"/>
					<polygon style="fill:#F9DDBF;" points="742.825,962.624 735.585,962.726 735.224,961.315 742.463,961.212 					"/>
					<polygon style="fill:#F9DDBF;" points="736.318,958.875 726.296,959.016 725.935,957.604 735.956,957.462 					"/>
					<polygon style="fill:#F9DDBF;" points="750.008,958.682 739.986,958.823 739.625,957.411 749.646,957.27 					"/>
				</g>
			</g>
			<g>
				<g>
					<polygon style="fill:#F9DDBF;" points="724.142,972.296 710.42,972.489 710.059,971.077 723.78,970.884 					"/>
					<polygon style="fill:#F9DDBF;" points="734.298,972.153 726.634,972.261 726.272,970.849 733.936,970.741 					"/>
					<polygon style="fill:#F9DDBF;" points="749.526,971.938 737.775,972.104 737.413,970.692 749.164,970.526 					"/>
				</g>
				<g>
					<polygon style="fill:#F9DDBF;" points="727.616,975.972 711.371,976.201 711.009,974.789 727.254,974.56 					"/>
					<polygon style="fill:#F9DDBF;" points="724.031,979.864 712.352,980.028 711.99,978.616 723.669,978.452 					"/>
					<polygon style="fill:#F9DDBF;" points="737.449,979.675 725.77,979.839 725.408,978.428 737.088,978.263 					"/>
					<polygon style="fill:#F9DDBF;" points="747.158,979.539 739.919,979.64 739.557,978.229 746.796,978.127 					"/>
					<polygon style="fill:#F9DDBF;" points="740.651,975.789 730.629,975.93 730.268,974.518 740.29,974.377 					"/>
					<polygon style="fill:#F9DDBF;" points="754.341,975.596 744.319,975.737 743.958,974.325 753.98,974.184 					"/>
				</g>
			</g>
			<g>
				<g>
					<polygon style="fill:#F9DDBF;" points="728.592,989.666 714.87,989.859 714.509,988.448 728.23,988.254 					"/>
					<polygon style="fill:#F9DDBF;" points="738.748,989.523 731.084,989.631 730.722,988.219 738.386,988.111 					"/>
					<polygon style="fill:#F9DDBF;" points="753.976,989.309 742.225,989.475 741.863,988.063 753.614,987.897 					"/>
				</g>
				<g>
					<polygon style="fill:#F9DDBF;" points="732.066,993.343 715.821,993.571 715.459,992.16 731.705,991.931 					"/>
					<polygon style="fill:#F9DDBF;" points="728.481,997.234 716.802,997.399 716.44,995.987 728.12,995.823 					"/>
					<polygon style="fill:#F9DDBF;" points="741.899,997.045 730.22,997.21 729.858,995.798 741.538,995.634 					"/>
					<polygon style="fill:#F9DDBF;" points="751.608,996.909 744.369,997.011 744.007,995.599 751.247,995.497 					"/>
					<polygon style="fill:#F9DDBF;" points="745.101,993.159 735.079,993.3 734.717,991.889 744.74,991.748 					"/>
					<polygon style="fill:#F9DDBF;" points="758.792,992.967 748.769,993.107 748.408,991.696 758.43,991.555 					"/>
				</g>
			</g>
			<g>
				<g>
					<polygon style="fill:#F9DDBF;" points="733.841,1011.086 720.12,1011.279 719.758,1009.867 733.48,1009.674 					"/>
					<polygon style="fill:#F9DDBF;" points="743.997,1010.943 736.333,1011.051 735.972,1009.639 743.636,1009.531 					"/>
					<polygon style="fill:#F9DDBF;" points="759.226,1010.729 747.475,1010.894 747.113,1009.482 758.864,1009.316 					"/>
				</g>
				<g>
					<polygon style="fill:#F9DDBF;" points="737.315,1014.763 721.071,1014.991 720.709,1013.579 736.954,1013.351 					"/>
					<polygon style="fill:#F9DDBF;" points="733.731,1018.654 722.051,1018.818 721.69,1017.406 733.369,1017.242 					"/>
					<polygon style="fill:#F9DDBF;" points="747.149,1018.465 735.47,1018.63 735.108,1017.218 746.787,1017.054 					"/>
					<polygon style="fill:#F9DDBF;" points="756.857,1018.329 749.618,1018.431 749.256,1017.019 756.496,1016.917 					"/>
					<polygon style="fill:#F9DDBF;" points="750.351,1014.579 740.329,1014.72 739.967,1013.309 749.989,1013.167 					"/>
					<polygon style="fill:#F9DDBF;" points="764.041,1014.387 754.019,1014.527 753.657,1013.115 763.679,1012.975 					"/>
				</g>
			</g>
			<g>
				<g>
					<polygon style="fill:#F9DDBF;" points="739.1,1031.136 725.378,1031.329 725.017,1029.917 738.738,1029.724 					"/>
					<polygon style="fill:#F9DDBF;" points="749.256,1030.993 741.592,1031.101 741.23,1029.688 748.894,1029.581 					"/>
					<polygon style="fill:#F9DDBF;" points="764.484,1030.778 752.733,1030.943 752.372,1029.532 764.122,1029.367 					"/>
				</g>
				<g>
					<polygon style="fill:#F9DDBF;" points="742.574,1034.813 726.329,1035.041 725.968,1033.629 742.212,1033.4 					"/>
					<polygon style="fill:#F9DDBF;" points="738.989,1038.704 727.31,1038.868 726.948,1037.457 738.628,1037.292 					"/>
					<polygon style="fill:#F9DDBF;" points="752.408,1038.516 740.728,1038.68 740.366,1037.268 752.046,1037.104 					"/>
					<polygon style="fill:#F9DDBF;" points="762.116,1038.379 754.877,1038.48 754.515,1037.068 761.754,1036.967 					"/>
					<polygon style="fill:#F9DDBF;" points="755.609,1034.629 745.587,1034.77 745.226,1033.357 755.248,1033.217 					"/>
					<polygon style="fill:#F9DDBF;" points="769.3,1034.436 759.277,1034.577 758.916,1033.165 768.938,1033.024 					"/>
				</g>
			</g>
		</g>
		<g>
			<path style="fill:#0E2C4F;" d="M910.298,1477.962c0,0-2.349,36.601-9.432,37.109c-0.942,0.068-35.919-0.008-35.919-0.008
				l-44.649-0.356c0,0,0.315-10.758,13.372-13.004c13.056-2.246,34.921-11.37,42.865-28.604
				C884.891,1454.971,910.298,1477.962,910.298,1477.962z"/>
			<path style="fill:#163560;" d="M1038.104,1176.91c1.706,1.436,47.18,50.71,43.466,88.554
				c-1.09,11.115-10.666,19.473-21.834,19.473h-55.394c0,0-56.521,10.101-57.87,22.315c-1.348,12.214-12.914,78.056-35.834,171.621
				c0,0-16.89,5.816-27.135,1.663c-13.547-5.492-15.514-11.319-15.514-11.319s13.661-209.515,24.447-224.259
				c10.786-14.743,121.901-58.579,157.88-62.944S1038.104,1176.91,1038.104,1176.91z"/>
			<path style="fill:#FFB27D;" d="M716.854,1124.65c0,0-32.139-7.474-40.361,0c-8.222,7.475-10.838,18.313-10.838,18.313h51.199
				V1124.65z"/>
			<path style="fill:#163560;" d="M832.042,1477.962c0,0-2.349,36.601-9.432,37.109c-0.942,0.068-35.919-0.008-35.919-0.008
				l-44.649-0.356c0,0,0.316-10.758,13.372-13.004c13.056-2.246,34.921-11.37,42.865-28.604
				C806.636,1454.971,832.042,1477.962,832.042,1477.962z"/>
			<path style="fill:#2B478B;" d="M1080.115,1176.91c1.294,1.088,11.133,27.571,17.708,57.646
				c5.657,25.883-14.031,50.38-40.526,50.38H928.435c0,0-56.521,10.101-57.87,22.315c-1.348,12.214-12.914,78.056-35.834,171.621
				c0,0-16.948,4.448-30.182-1.207c-7.038-3.008-12.59-10.222-12.59-10.222s13.784-207.742,24.57-222.486
				c10.786-14.743,121.901-58.579,157.88-62.944C1010.389,1177.648,1080.115,1176.91,1080.115,1176.91z"/>
			<path style="fill:#FFB27D;" d="M1008.688,989.604l-19.928,19.13l-33.955,0.01c-0.039-2.73,0.076-14.116,0.194-24.434
				c0.011-0.607,0.022-1.213,0.026-1.81c0.026-2.29,0.058-4.501,0.081-6.515c0.068-5.686,0.126-9.804,0.126-9.804l8.728-5.969
				l19.394-13.278l10.487-7.169c0.006,0.177,0.869,9.556,0.999,10.919C997.162,974.969,1008.688,989.604,1008.688,989.604z"/>
			<path style="fill:#EAC3A2;" d="M959.322,986.152c0.647-0.272,37.386-16.753,41.683-15.334c4.296,1.418,9.652,14.54,9.652,14.54
				l-64.691,14.625C945.966,999.984,951.058,989.632,959.322,986.152z"/>
			<path style="fill:#F9DDBF;" d="M1118.225,1096.248c-7-43.161-36.553-75.467-49.198-87.575
				c-8.492-12.773-58.37-23.314-58.37-23.314s-41.321,9.342-64.691,14.625c0,0-36.461,3.956-57.023,37.965
				c-12.716,21.031-49.135,69.137-73.053,70.632c-23.917,1.495-99.035,16.069-99.035,16.069v18.477l114.52,3.143
				c1.402,0.038,2.79-0.069,4.168-0.33c9.855-1.859,52.095-10.254,73.102-21.187c3.355,54.096,7.318,136.7,26.211,149.818
				c19.984,13.875,160.516,15.73,175.397-5.417c7.616-10.823-1.722-74.904-13.39-136.695
				C1111.366,1125.56,1121.16,1114.346,1118.225,1096.248z"/>
			<path style="fill:#EAA16E;" d="M988.41,958.243l-1.731,1.075c0,0-15.978,11.507-31.571,16.668
				c0.068-5.686,0.126-9.804,0.126-9.804l8.728-5.969L988.41,958.243z"/>
			<path style="fill:#FFB27D;" d="M943.334,966.477c0,0,52.244,6.181,55.592-26.414c3.348-32.594,12.346-53.748-20.869-59.072
				c-33.215-5.324-40.983,6.446-44.747,17.054C929.546,908.652,929.831,964.029,943.334,966.477z"/>
			<path style="fill:#163560;" d="M934.693,894.706c0,0,9.862,35.36,17.004,32.411c7.143-2.949,13.669-5.365,14.604,5.674
				c0.936,11.039-7.037,25.477,16.232,23.116c23.269-2.362,45.171-67.599,36.788-77.61
				C995.133,849.41,901.092,860.231,934.693,894.706z"/>
		</g>
		<g>
			<path style="fill:#77A4E5;" d="M897.693,1291.945h258.426c9.814,0,17.771-7.956,17.771-17.771v-11.557H897.693V1291.945z"/>
			<path style="fill:#F99746;" d="M866.725,1291.945h195.51c7.257,0,13.141-5.883,13.141-13.141v-3.047
				c0-7.257-5.883-13.141-13.141-13.141h-195.51c-7.257,0-13.141,5.884-13.141,13.141v3.047
				C853.584,1286.063,859.467,1291.945,866.725,1291.945z"/>
			<g>
				<polygon style="fill:#2B478B;" points="1029.49,1504.063 1046.16,1504.063 1050.836,1291.945 1025.372,1291.945 				"/>
				<polygon style="fill:#2B478B;" points="957.046,1504.063 1119.163,1504.063 1119.163,1489.42 1036.536,1481.968 
					957.046,1489.42 				"/>
				<path style="fill:#2B478B;" d="M1134.912,1501.764c0-7.364-5.97-13.335-13.335-13.335c-7.365,0-13.335,5.971-13.335,13.335
					c0,7.365,5.97,13.336,13.335,13.336C1128.941,1515.1,1134.912,1509.129,1134.912,1501.764z"/>
				<path style="fill:#2B478B;" d="M972.795,1501.764c0-7.364-5.97-13.335-13.335-13.335c-7.365,0-13.335,5.971-13.335,13.335
					c0,7.365,5.971,13.336,13.335,13.336C966.825,1515.1,972.795,1509.129,972.795,1501.764z"/>
				<path style="fill:#2B478B;" d="M962.856,1305.862h150.496c7.686,0,13.917-6.231,13.917-13.917l0,0H948.94l0,0
					C948.94,1299.631,955.171,1305.862,962.856,1305.862z"/>
			</g>
			<path style="fill:#F99746;" d="M1148.36,1291.945c7.008,0,12.689-5.681,12.689-12.689v-195.323
				c0-36.602-23.93-66.273-53.449-66.273H986.732c-29.519,0-53.449,29.672-53.449,66.273v208.013H1148.36z"/>
			<path style="fill:#CC6A27;" d="M1150.748,1291.945c12.781,0,23.143-10.361,23.143-23.142v-184.871
				c0-36.602-23.93-66.273-53.449-66.273H999.573c-29.519,0-53.449,29.672-53.449,66.273v208.013H1150.748z"/>
		</g>
		<g>
			<rect x="617.451" y="1229.804" style="fill:#3C5EA5;" width="93.76" height="288.436"/>
			<rect x="487.274" y="1229.804" style="fill:#2B478B;" width="137.897" height="288.436"/>
			<rect x="625.171" y="1282.173" style="fill:#2B478B;" width="86.039" height="2.857"/>
			<rect x="625.171" y="1343.842" style="fill:#2B478B;" width="86.039" height="2.857"/>
			<rect x="625.171" y="1405.512" style="fill:#2B478B;" width="86.039" height="2.856"/>
			<rect x="625.171" y="1467.181" style="fill:#2B478B;" width="86.039" height="2.856"/>
			<g>
				<path style="fill:#2B478B;" d="M630.935,1237.685c0-1.255,1.017-2.272,2.272-2.272c1.255,0,2.272,1.018,2.272,2.272
					s-1.017,2.272-2.272,2.272C631.952,1239.957,630.935,1238.939,630.935,1237.685z"/>
				<path style="fill:#F9DDBF;" d="M643.34,1237.685c0-1.255,1.018-2.272,2.273-2.272c1.255,0,2.272,1.018,2.272,2.272
					s-1.017,2.272-2.272,2.272C644.357,1239.957,643.34,1238.939,643.34,1237.685z"/>
				<path style="fill:#F1A34F;" d="M655.745,1237.685c0-1.255,1.017-2.272,2.272-2.272s2.272,1.018,2.272,2.272
					s-1.017,2.272-2.272,2.272S655.745,1238.939,655.745,1237.685z"/>
				<path style="fill:#F9DDBF;" d="M668.15,1237.685c0-1.255,1.018-2.272,2.272-2.272c1.255,0,2.272,1.018,2.272,2.272
					s-1.018,2.272-2.272,2.272C669.167,1239.957,668.15,1238.939,668.15,1237.685z"/>
			</g>
			<g>
				<path style="fill:#2B478B;" d="M630.935,1358.01c0-1.255,1.017-2.271,2.272-2.271c1.255,0,2.272,1.017,2.272,2.271
					s-1.017,2.272-2.272,2.272C631.952,1360.282,630.935,1359.265,630.935,1358.01z"/>
				<path style="fill:#F9DDBF;" d="M643.34,1358.01c0-1.255,1.018-2.271,2.273-2.271c1.255,0,2.272,1.017,2.272,2.271
					s-1.017,2.272-2.272,2.272C644.357,1360.282,643.34,1359.265,643.34,1358.01z"/>
				<path style="fill:#F1A34F;" d="M655.745,1358.01c0-1.255,1.017-2.271,2.272-2.271s2.272,1.017,2.272,2.271
					s-1.017,2.272-2.272,2.272S655.745,1359.265,655.745,1358.01z"/>
				<path style="fill:#F9DDBF;" d="M668.15,1358.01c0-1.255,1.018-2.271,2.272-2.271c1.255,0,2.272,1.017,2.272,2.271
					s-1.018,2.272-2.272,2.272C669.167,1360.282,668.15,1359.265,668.15,1358.01z"/>
			</g>
			<g>
				<path style="fill:#2B478B;" d="M630.935,1427.391c0-1.255,1.017-2.271,2.272-2.271c1.255,0,2.272,1.017,2.272,2.271
					s-1.017,2.272-2.272,2.272C631.952,1429.663,630.935,1428.646,630.935,1427.391z"/>
				<path style="fill:#F9DDBF;" d="M643.34,1427.391c0-1.255,1.018-2.271,2.273-2.271c1.255,0,2.272,1.017,2.272,2.271
					s-1.017,2.272-2.272,2.272C644.357,1429.663,643.34,1428.646,643.34,1427.391z"/>
				<path style="fill:#F1A34F;" d="M655.745,1427.391c0-1.255,1.017-2.271,2.272-2.271s2.272,1.017,2.272,2.271
					s-1.017,2.272-2.272,2.272S655.745,1428.646,655.745,1427.391z"/>
				<path style="fill:#F9DDBF;" d="M668.15,1427.391c0-1.255,1.018-2.271,2.272-2.271c1.255,0,2.272,1.017,2.272,2.271
					s-1.018,2.272-2.272,2.272C669.167,1429.663,668.15,1428.646,668.15,1427.391z"/>
			</g>
			<rect x="498.956" y="1248.522" style="fill:#163560;" width="113.042" height="2.914"/>
			<rect x="498.956" y="1257.263" style="fill:#163560;" width="113.042" height="2.914"/>
			<rect x="498.956" y="1267.023" style="fill:#163560;" width="113.042" height="2.913"/>
		</g>
	</g>
	<g>
		<g>
			<path style="fill:#AEC3FF;" d="M413.532,1382.313c0,0-20.983-24.48-1.294-40.03c0,0,14.382-8.707,26.109-8
				c0,0-16.617,27.864-11.241,30.636c5.376,2.771,16.277-32.383,16.277-32.383s32.729-3.174,43.257,1.888
				c0,0-27.979,22.896-22.086,24.259s36.113-21.109,36.113-21.109s30.461,5.184,28.837,23.766s-12.12,24.32-16.733,23.826
				s-31.598-10.795-32.186-7.016c-0.588,3.78,15.656,16.133,27.031,16.711c0,0-21.476,23.684-35.749,16.849
				c-14.273-6.835-15.491-17.671-24.389-21.734c-8.897-4.063-16.492-4.054-12.819,0.091c3.673,4.145,19.775,8.173,24.864,17.173
				c5.088,9,9.653,15.07-5.114,12.849c-14.767-2.223-38.771-13.027-39.824-25.4C413.532,1382.313,413.532,1382.313,413.532,1382.313
				z"/>
			<g>
				<path style="fill:#AEC3FF;" d="M514.538,1361.84c0,0-82.734-3.189-101.005,20.473c0,0-4.041,12.102-16.475,23.121l-1.939,5.282
					c0,0,14.337-15.116,19.467-16.03C414.586,1394.686,406.563,1365.371,514.538,1361.84z"/>
				<path style="fill:#AEC3FF;" d="M397.058,1405.434c0,0-17.759,13.134-18.992,36.6l3.223,0.288c0,0,5.671-24.264,15.923-33.752
					C407.463,1399.081,397.058,1405.434,397.058,1405.434z"/>
			</g>
		</g>
		<g>
			<path style="fill:#AEC3FF;" d="M340.167,1351.525c0,0,33.379-18.692,17.802-44.061c0,0-12.461-15.576-25.813-19.582
				c0,0,7.121,37.83,0,38.72c-7.121,0.89-4.896-42.726-4.896-42.726s-35.159-16.912-48.956-15.577c0,0,21.808,36.94,14.687,36.05
				c-7.121-0.89-31.599-38.274-31.599-38.274s-36.05-6.676-41.835,14.687c-5.786,21.363,3.561,32.044,8.901,33.379
				c5.34,1.336,39.61,0.891,38.72,5.341c-0.89,4.451-24.033,11.571-36.94,7.566c0,0,14.242,35.159,32.935,33.379
				c18.692-1.78,24.478-13.352,36.049-14.241c11.571-0.891,20.028,2.225,14.242,5.34c-5.786,3.116-25.368,1.021-34.714,8.967
				s-16.912,12.842,0.445,16.402c17.357,3.56,48.511,1.335,54.742-12.018C340.167,1351.525,340.167,1351.525,340.167,1351.525z"/>
			<g>
				<path style="fill:#AEC3FF;" d="M236.024,1287.438c0,0,93.461,30.264,104.143,64.088c0,0-0.445,15.133,8.901,32.489v6.676
					c0,0-9.791-22.697-15.132-25.813C333.936,1364.877,354.854,1335.504,236.024,1287.438z"/>
				<path style="fill:#AEC3FF;" d="M349.068,1384.015c0,0,14.413,21.888,6.196,48.53l-3.708-0.996c0,0,3.6-29.346-3.941-44.104
					C340.074,1372.686,349.068,1384.015,349.068,1384.015z"/>
			</g>
		</g>
		<g>
			<path style="fill:#7D9FEA;" d="M393.271,1325.746c0,0-44-24.64-23.466-58.08c0,0,16.426-20.533,34.026-25.813
				c0,0-9.387,49.866,0,51.039c9.387,1.174,6.454-56.319,6.454-56.319s46.347-22.294,64.533-20.533c0,0-28.747,48.693-19.36,47.52
				c9.387-1.173,41.653-50.453,41.653-50.453s47.52-8.8,55.146,19.36c7.627,28.159-4.693,42.239-11.733,44
				c-7.04,1.76-52.213,1.173-51.04,7.039c1.173,5.867,31.68,15.254,48.693,9.974c0,0-18.773,46.347-43.413,44
				c-24.64-2.347-32.267-17.6-47.52-18.772c-15.253-1.174-26.4,2.933-18.773,7.039c7.626,4.107,33.44,1.346,45.76,11.82
				c12.32,10.474,22.293,16.927-0.586,21.62c-22.88,4.693-63.947,1.76-72.16-15.84
				C393.271,1325.746,393.271,1325.746,393.271,1325.746z"/>
			<g>
				<path style="fill:#7D9FEA;" d="M530.551,1241.267c0,0-123.2,39.894-137.28,84.479c0,0,0.587,19.947-11.733,42.827v8.8
					c0,0,12.907-29.92,19.947-34.026C401.484,1343.347,373.911,1304.627,530.551,1241.267z"/>
				<path style="fill:#7D9FEA;" d="M381.537,1368.573c0,0-18.999,28.852-8.168,63.972l4.888-1.313c0,0-4.745-38.684,5.196-58.139
					C393.393,1353.639,381.537,1368.573,381.537,1368.573z"/>
			</g>
		</g>
		<path style="fill:#A0BBF9;" d="M391.788,1508.706c47.601,0,86.189-38.589,86.189-86.189H305.599
			C305.599,1470.117,344.187,1508.706,391.788,1508.706z"/>
		<path style="fill:#AEC3FF;" d="M479.167,1513.092H304.409l0,0c0-5.873,4.761-10.634,10.633-10.634h153.492
			C474.407,1502.458,479.167,1507.219,479.167,1513.092L479.167,1513.092z"/>
		<rect x="302.765" y="1422.517" style="fill:#BBD0FF;" width="177.172" height="2.644"/>
	</g>
	<g>
		<g>
			
				<rect x="1283.3" y="1179.767" transform="matrix(0.9777 -0.2102 0.2102 0.9777 -240.1174 302.8212)" style="fill:#7EA4ED;" width="41.829" height="201.998"/>
			<path style="fill:#AEC3FF;" d="M1303.454,1177.627c0.569,2.646-8.124,6.761-19.417,9.188
				c-11.292,2.429-20.908,2.252-21.478-0.395c-0.569-2.647,8.124-6.761,19.417-9.189S1302.884,1174.98,1303.454,1177.627z"/>
		</g>
		<g>
			
				<rect x="1357.265" y="1180.76" transform="matrix(0.9529 -0.3034 0.3034 0.9529 -323.9053 478.52)" style="fill:#F78248;" width="41.829" height="201.998"/>
			<path style="fill:#FF8C5A;" d="M1367.506,1179.207c0.958,3.01-7.188,8.29-18.194,11.794c-11.006,3.505-20.705,3.905-21.664,0.896
				c-0.958-3.01,7.188-8.29,18.193-11.795C1356.848,1176.598,1366.547,1176.197,1367.506,1179.207z"/>
		</g>
		<g>
			
				<rect x="1424.504" y="1341.005" transform="matrix(0.2794 -0.9602 0.9602 0.2794 -201.3993 2441.0164)" style="fill:#AEC3FF;" width="201.998" height="27.35"/>
			<path style="fill:#C7D8FF;" d="M1566.854,1261.567c-0.883,3.032-7.477,3.781-14.729,1.671
				c-7.251-2.109-12.415-6.278-11.533-9.312c0.882-3.032,7.477-3.781,14.728-1.671
				C1562.572,1254.365,1567.735,1258.534,1566.854,1261.567z"/>
		</g>
		<g>
			
				<rect x="1238.24" y="1309.923" transform="matrix(0.0183 -0.9998 0.9998 0.0183 -4.7422 2642.6245)" style="fill:#FFB93E;" width="210.103" height="27.608"/>
			<path style="fill:#EA9E24;" d="M1359.107,1219.174c-0.05,2.738-6.27,4.846-13.892,4.707c-7.623-0.14-13.761-2.473-13.711-5.211
				c0.05-2.738,6.27-4.846,13.892-4.707C1353.019,1214.103,1359.158,1216.436,1359.107,1219.174z"/>
		</g>
		<g>
			
				<rect x="1408.762" y="1354.208" transform="matrix(0.1097 -0.994 0.994 0.1097 -30.5173 2700.8894)" style="fill:#FFB93E;" width="167.277" height="26.543"/>
			<path style="fill:#EA9E24;" d="M1514.842,1285.992c-0.239,2.167-6.339,3.272-13.625,2.469
				c-7.286-0.804-12.998-3.213-12.758-5.381c0.239-2.167,6.339-3.272,13.624-2.469
				C1509.369,1281.415,1515.081,1283.824,1514.842,1285.992z"/>
		</g>
		<g>
			<rect x="1366.935" y="1342.825" style="fill:#ED823A;" width="209.004" height="172.337"/>
			<rect x="1262.433" y="1342.825" style="fill:#FF9E55;" width="209.004" height="172.337"/>
			<polygon style="fill:#DD732C;" points="1575.817,1471.457 1542.699,1471.457 1545.616,1462.138 1542.699,1455.479 
				1575.817,1455.479 			"/>
			<polygon style="fill:#FFB27D;" points="1471.437,1396.158 1438.318,1396.158 1441.236,1386.839 1438.318,1380.18 
				1471.437,1380.18 			"/>
			<polygon style="fill:#DD732C;" points="1471.437,1380.18 1504.556,1380.18 1501.639,1389.499 1504.556,1396.158 
				1471.437,1396.158 			"/>
			<polygon style="fill:#FFB27D;" points="1262.428,1473.307 1295.547,1473.307 1292.629,1482.626 1295.547,1489.285 
				1262.428,1489.285 			"/>
			
				<rect x="1276.117" y="1354.51" transform="matrix(-1 -1.224647e-16 1.224647e-16 -1 2612.3789 2732.418)" style="fill:#FFFFFF;" width="60.145" height="23.398"/>
		</g>
	</g>
	<g>
		<path style="fill:#163560;" d="M2065.069,831.348c-13.851-4.6-23.438,1.205-23.438,1.205
			c-39.878,1.639-44.025,49.111-40.992,64.735c3.026,15.623,7.513,32.21-6.718,55.401c-41.107,66.991,65.065,52.744,65.065,52.744
			c-6.607-47.239,52.587-39.048,50.872-33.882C2184.998,977.391,2096.568,841.807,2065.069,831.348z"/>
		<path style="fill:#F9DDBF;" d="M2023.709,1035.291c0,0-3.79,7.504-10.662,16.125c-8.284,10.374-51.763-14.252-48.018-16.125
			c3.746-1.872,25.595-64.815,30.795-72.724c5.205-7.909,22.934-12.017,22.934-12.017L2023.709,1035.291z"/>
		<path style="fill:#2B478B;" d="M2170.432,1459.809c0,0,12,10.951,9.658,18.732c-2.341,7.781-13.17,12.969-14.634,22.479
			s-7.317,14.698-12.586,14.698s-25.117,0-25.117,0s-3.878-6.692,5.488-8.71s12.897-13.193,12.312-23.568
			c-0.585-10.375,0.879-24.208,0.879-24.208l19.902-4.611L2170.432,1459.809z"/>
		<path style="fill:#2B478B;" d="M2068.862,1464.458c0,0,4.317,46.394-0.951,48.987l-67.424-0.138c0,0,0-7.781,10.829-9.511
			c10.83-1.729,29.854-8.069,33.074-22.191C2047.61,1467.484,2068.862,1464.458,2068.862,1464.458z"/>
		<path style="fill:#FFB27D;" d="M2116.909,1131.616c-13.875-31.115-22.364-40.046-20.744-49.704
			c1.206-7.188-3.673-134.018-3.673-134.018c-1.646-0.51-4.945-0.967-6.75-1.368c-5.691-1.264-10.402-5.261-12.362-10.751
			c-2.361-6.614-4.239-16.379-4.195-28.617l-1.777,0.35l-29.884,5.917c0,0,0.68,9.405,0.7,18.264c0,0.074,0,0.147,0.001,0.221
			c0.036,7.695-5.012,14.486-12.404,16.62c-3.774,1.089-7.059,2.021-7.059,2.021s-10.974,31.329-13.07,63.513
			c-2.095,32.185,19.955,46.166-0.165,110.481C1984.984,1190.232,2124.573,1148.81,2116.909,1131.616z"/>
		<path style="fill:#E8945B;" d="M2037.523,913.426c0,0,0.68,9.405,0.7,18.265c16.723-0.471,25.562-15.726,29.184-24.182
			L2037.523,913.426z"/>
		<path style="fill:#FFB27D;" d="M2035.72,925.921c0,0,39.176-5.58,35.325-29.923c-3.851-24.343-1.388-41.457-26.563-38.924
			c-25.176,2.533-28.554,12.589-29.245,21.027C2014.546,886.539,2025.43,926.745,2035.72,925.921z"/>
		<path style="fill:#163560;" d="M2026.592,859.313c0,0,15.246,26.85,32.337,28.456c17.091,1.607,23.512-3.927,23.512-3.927
			s-14.188-7.998-19.583-25.045C2062.857,858.797,2032.496,844.437,2026.592,859.313z"/>
		<path style="fill:#163560;" d="M2029.612,861.208c0,0-7.461,4.229-9.804,10.535c-2.292,6.167-3.818,14.093-1.723,23.185
			c0,0-11.151-18.124-3.843-30.546C2021.993,851.211,2029.612,861.208,2029.612,861.208z"/>
		<path style="fill:#F9DDBF;" d="M2120.728,1003.998c0,0,1.005,14.166,0,31.164c-0.668,11.268-12.065,26.36-13.683,30.093
			c-4.058,9.364-8.634,10.887-8.634,10.887l-35.4,8.677l-12.447,3.047l-39.252-11.724c0,0-17.879-49.901-10.7-77.993
			c7.179-28.091,18.146-47.599,18.146-47.599s32.03,31.362,73.736-2.659L2120.728,1003.998z"/>
		<path style="fill:#F2CCAA;" d="M2124.1,1035.557c-0.668,11.268-15.438,25.966-17.055,29.698
			c-4.058,9.364-8.634,10.887-8.634,10.887l-35.4,8.677l-9.443-13.317c0,0,57.308-15.938,46.456-66.464L2124.1,1035.557z"/>
		<path style="fill:#ED7D2B;" d="M2013.808,1083.717c0,0-19.438,60.505-20.687,81.104c-1.249,20.601,37.157,292.642,38.703,302.134
			c1.456,8.947,12.566,14.65,12.566,14.65s5.11,3.015,12.402,0.955c10.119-2.856,13.317-6.277,13.317-6.277
			s15.13-194.019,5.767-263.325c-9.362-69.308-9.473-129.241-9.473-129.241H2013.808z"/>
		<path style="fill:#F99746;" d="M2096.165,1081.912c0,0,29.652,39.785,32.416,66.68c2.765,26.894,4.337,121.362,10.226,147.58
			c5.89,26.219,27.527,76.674,27.527,158.449c0,0-2.249,4.687-9.193,7.184c-2.221,0.799-5.196,1.573-8.086,2.235
			c-5.727,1.313-11.603-1.486-14.216-6.748c-14.629-29.454-61.227-124.449-63.616-144.168
			c-1.69-13.955-16.403-106.313-48.497-160.507c-7.705-13.011,4.729-64.752,4.729-64.752L2096.165,1081.912z"/>
		<path style="fill:#FFFFFF;" d="M2041.051,910.257c0,0-0.218,2.976-7.424,3.67c0,0-6.05,0.584-6.369-2.598
			C2027.258,911.33,2032.71,908.162,2041.051,910.257z"/>
		<path style="fill:#233862;" d="M2010.702,1074.376c0,0,7.805,6.173,23.307,6.485c18.517,0.372,64.4-4.721,64.4-4.721
			s2.039,5.695,1.956,11.711c0,0-56.04,14.135-88.509,2.063C2011.856,1089.915,2007.669,1082.036,2010.702,1074.376z"/>
		<g>
			<path style="fill:#FFFFFF;" d="M2029.566,1096.818c-4.659,0-8.45-4.29-8.45-9.563s3.791-9.563,8.45-9.563s8.449,4.29,8.449,9.563
				S2034.226,1096.818,2029.566,1096.818z M2029.566,1080.492c-3.115,0-5.649,3.034-5.649,6.763c0,3.729,2.534,6.763,5.649,6.763
				c3.114,0,5.648-3.033,5.648-6.763C2035.215,1083.526,2032.681,1080.492,2029.566,1080.492z"/>
		</g>
		<polygon style="fill:#AEC3FF;" points="2070.051,1114.214 1985.824,1115.002 1944.378,1017.6 2028.604,1016.812 		"/>
		<path style="fill:#FFB27D;" d="M2059.036,1070.198l-6.174-7.587c0,0-4.179-3.727-7.21-4.36c-3.031-0.633-9.434-4.325-10.055-3.285
			s4.918,8.462,4.918,8.462l0.282,0.041c-6.359,4.782-22.414,0.56-24.396,2.511c-2.402,2.366,3.307,7.478,6.368,10.348
			c3.063,2.871,11.819,7.657,18.647,5.532c4.991-1.554,12.847-3.135,12.847-3.135L2059.036,1070.198z"/>
		<path style="fill:#FFB27D;" d="M1950.714,1034.733c0,0,5.293-6.016,8.661-3.128c3.368,2.887-0.882,17.082-4.09,15.639
			S1948.869,1036.498,1950.714,1034.733z"/>
		<path style="fill:#F9DDBF;" d="M2092.494,947.891c0,0,28.086,1.969,38.852,28.14c10.766,26.172,30.733,81.974,30.733,89.365
			c0,7.393-22.042,34.588-108.285,13.564c0,0-2.939-8.279,2.825-12.462c0,0,60.123-19.304,60.021-23.144
			c-0.194-7.264-8.125-13.54-41.709-47.135C2065.8,987.087,2092.494,947.891,2092.494,947.891z"/>
	</g>
	<g>
		<g>
			<path style="fill:#FFB27D;" d="M2496.947,1056.131c0,0-13.092-8.274-20.156-7.644c-8.408,0.752-15.303,1.064-15.307,3.302
				c-0.016,8.259,8.828,5.211,12.143,9.769c4.342,5.97,14.213,4.473,16.095,4.681c1.882,0.209,6.201,2.158,6.201,2.158
				L2496.947,1056.131z"/>
			<path style="fill:#E58638;" d="M2662.784,929.731c0,0,60.436,99.975,51.029,118.959c-9.407,18.983-32.377,23.621-32.377,23.621
				L2662.784,929.731z"/>
			<path style="fill:#163560;" d="M2631.739,1486.373c0,0-1.411,22.738-5.634,28.086h-64.974c0.41-2.268,2.249-7.865,10.374-9.284
				c10.266-1.785,27.451-8.999,33.665-22.568C2611.715,1468.331,2631.739,1486.373,2631.739,1486.373z"/>
			<path style="fill:#082038;" d="M2747.041,1483.203c0,0,5.598,30.094,0.036,30.604c-0.739,0.068-27.241,0.329-34.317,1.389
				c-11.555,1.729-32.564-1.389-32.564-1.389c-2.414,0.101-3.098-3-1.869-5.08c1.349-2.281,3.921-4.719,8.827-5.663
				c10.231-1.969,27.284-9.485,33.263-23.16C2726.705,1465.519,2747.041,1483.203,2747.041,1483.203z"/>
			<path style="fill:#163560;" d="M2601.188,1183.764c0,0,16.337,57.168,63.161,156.442
				c46.823,99.274,45.846,150.716,45.846,150.716h39.345c0,0-5.531-125.882-27.648-175.98
				c-22.118-50.098-26.624-187.188-26.624-187.188L2601.188,1183.764z"/>
			<path style="fill:#2B478B;" d="M2574.959,1134.576c0,0-1.301,88.521,14.015,197.211c15.316,108.688,7.462,159.135,7.462,159.135
				h39.411c0,0,21.855-111.819,15.57-166.221s30.02-186.675,30.02-186.675L2574.959,1134.576z"/>
			<path style="fill:#FFB27D;" d="M2650.583,923.34l-11.44,18.239l-25.203,4.212c-0.509-2.25-2.416-11.651-4.137-20.17
				c-0.1-0.503-0.199-1.006-0.3-1.497c-1.455-7.251-2.7-13.483-2.7-13.483l17.504-19.352l6.526-7.215
				c0.034,0.151,2.317,7.773,2.655,8.884C2639.46,912.696,2650.583,923.34,2650.583,923.34z"/>
			<path style="fill:#F99746;" d="M2696.901,1145.501c0.419-23.309-13.463-151.583-17.757-169.937
				c-7.614-32.478-14.446-51.017-28.925-55.279c-5.351-1.563-25.049,3.553-39.302,7.686c-0.991,0.282-1.975,0.62-2.933,1.023
				c-3.521,1.402-6.712,3.448-9.427,6.01c-3.835,3.593-6.72,8.178-8.267,13.375c-2.199,7.388-4.729,16.863-6.775,27.305
				c-2.24,11.32-3.916,23.768-4.028,35.95c-0.13,12.642-1.838,31.325-3.771,50.969c-0.217,2.183-0.435,4.374-0.652,6.574
				c-0.153,1.522-2.578,51.637-3.287,65.067c-0.008,0.186-0.016,0.362-0.024,0.532c0,0.016,0,0.04-0.008,0.056
				c-0.009,0.193-0.017,0.387-0.032,0.564c-0.064,1.2-0.105,1.934-0.121,2.103
				C2570.021,1153.292,2696.418,1171.984,2696.901,1145.501z"/>
			<path style="fill:#FCA56B;" d="M2631.988,893.935c-1.198,11.008-15.901,25.876-22.186,31.686c-0.1-0.503-0.199-1.006-0.3-1.497
				c-1.455-7.251-2.7-13.483-2.7-13.483l17.504-19.352C2629.084,889.333,2632.486,889.402,2631.988,893.935z"/>
			<path style="fill:#FFB27D;" d="M2595.735,913.504c0,0,44.025-3.119,41.661-30.505c-2.364-27.387,1.727-46.234-26.482-45.4
				c-28.209,0.833-32.761,11.754-34.195,21.087C2575.284,868.019,2584.223,913.609,2595.735,913.504z"/>
			<path style="fill:#163560;" d="M2577.334,855.717c0,0,13.685,27.589,19.107,24.037c5.422-3.553,10.421-6.57,12.927,2.381
				c2.506,8.95,3.399,21.752,22.204,16.148c18.804-5.604,21.404-62.458,12.923-69.391
				C2620.021,808.889,2544.225,832.588,2577.334,855.717z"/>
			<path style="fill:#E58638;" d="M2571.713,1135.397c93.822-4.883,74.64-108.979,74.64-108.979l-70.636,36.185
				c-0.217,2.183-0.435,4.374-0.652,6.574c-0.153,1.522-2.578,51.637-3.287,65.067c0.016,0.193,0.008,0.362-0.024,0.532
				c0,0.016,0,0.04-0.008,0.056C2571.736,1135.026,2571.729,1135.22,2571.713,1135.397z"/>
			<path style="fill:#2A4E96;" d="M2417.653,1006.765c0.393,0.004,0.707,0.325,0.703,0.718c-0.003,0.393-0.325,0.707-0.717,0.703
				c-0.393-0.003-0.708-0.324-0.704-0.717C2416.939,1007.076,2417.261,1006.762,2417.653,1006.765z"/>
			<path style="fill:#F99746;" d="M2497.393,1053.885c0,0,89.122-7.432,95.409-10.492c10.034-4.886,3.229-81.668,3.229-81.668
				s-7.722-11.514,11.334-15.361c16.559-3.344,32.535,9.061,32.535,9.061s14.53,13.001,12.674,27.422
				c-4.115,31.965-10.516,96.979-31.896,106.944c-27.575,12.854-128.102-20.037-128.102-20.037s-0.566-4.569,1.356-10.311
				C2494.672,1057.237,2497.393,1053.885,2497.393,1053.885z"/>
			<path style="fill:#E58638;" d="M2606.784,920.958c0.548-0.231,34.015-10.106,37.649-8.906c3.636,1.2,5.789,8.234,5.789,8.234
				l-51.668,14.717C2598.555,935.004,2599.791,923.903,2606.784,920.958z"/>
			<path style="fill:#FFB27D;" d="M2491.354,1053.105c0,0-5.787-6.064-7.279-7.964s-1.674,0.136-1.447,1.266
				c0.226,1.131,1.944,3.98,1.221,4.613S2490.085,1055.506,2491.354,1053.105z"/>
		</g>
	</g>
	<path style="fill:#2E3552;" d="M3105.327,1522.949H152.97c-2.02,0-3.673-1.653-3.673-3.673v-2.073c0-2.02,1.653-3.673,3.673-3.673
		h2952.357c2.021,0,3.673,1.653,3.673,3.673v2.073C3109,1521.296,3107.348,1522.949,3105.327,1522.949z"/>
</g>
</svg>
